<svg xmlns="http://www.w3.org/2000/svg" viewBox="0 0 318.97 130.62">
  <defs><style>.cls-1{fill:#e7ff00;}</style></defs>
  <g>
    <path class="cls-1" d="M302,13.75H17c-1.83,0-2.75.81-2.75,2.42v98.28c0,1.61.92,2.42,2.75,2.42H302c1.83,0,2.75-.81,2.75-2.42V16.17C304.72,14.56,303.8,13.75,302,13.75ZM79.79,63.88q0,13.63-16.17,13.64H50.2v23.1H31V30H63.62q16.17,0,16.17,13.64Zm38.28,36.74L106.85,75.54h-1.21v25.08H86.39V30h32.67q16.17,0,16.17,13.64V61.9q0,10.46-9.46,12.87l13,25.85Zm44.11,0H142.93V30h19.25Zm73.7,0h-17V55.74L210,85.33h-13.2L188.14,56v44.66H171V30h21l11.44,37.73L214.87,30h21Zm52.14,0H244.68V30H287V43.75h-23.1V58.16h19.91V71.91H263.93v15H288Z"/>
    <polygon class="cls-1" points="52.32 44.1 48.28 54.56 53.67 54.56 49.63 64.15 63.11 51.07 56.37 51.07 63.11 44.1 52.32 44.1"/>
    <path class="cls-1" d="M113.23,43.75h-7.59v18.7h7.59c1.83,0,2.75-.81,2.75-2.42V46.17C116,44.56,115.06,43.75,113.23,43.75Z"/>
    <path d="M135.23,61.9V43.64Q135.23,30,119.06,30H86.39v70.62h19.25V75.54h1.21l11.22,25.08h20.68l-13-25.85Q135.24,72.35,135.23,61.9ZM116,60c0,1.61-.92,2.42-2.75,2.42h-7.59V43.75h7.59c1.83,0,2.75.81,2.75,2.42Z"/>
    <rect x="142.93" y="30" width="19.25" height="70.62"/>
    <polygon points="203.43 67.73 191.99 30 170.98 30 170.98 100.62 188.14 100.62 188.14 55.96 196.83 85.33 210.03 85.33 218.83 55.74 218.83 100.62 235.88 100.62 235.88 30 214.87 30 203.43 67.73"/>
    <polygon points="263.93 71.91 283.84 71.91 283.84 58.16 263.93 58.16 263.93 43.75 287.03 43.75 287.03 30 244.68 30 244.68 100.62 288.02 100.62 288.02 86.87 263.93 86.87 263.93 71.91"/>
    <path d="M63.62,30H31v70.62H50.2V77.52H63.62q16.17,0,16.17-13.64V43.64Q79.79,30,63.62,30Zm-.51,21.07L49.63,64.15l4-9.59H48.28l4-10.46H63.11l-6.74,7Z"/>
    <path d="M302.8,0H16.17Q0,0,0,13.64V117q0,13.63,16.17,13.64H302.8Q319,130.62,319,117V13.64Q319,0,302.8,0Zm1.92,114.45c0,1.61-.92,2.42-2.75,2.42H17c-1.83,0-2.75-.81-2.75-2.42V16.17c0-1.61.92-2.42,2.75-2.42H302c1.83,0,2.75.81,2.75,2.42Z"/>
  </g>
</svg>
