<svg width="278px" height="262px" viewBox="224 106 278 262" version="1.1" xmlns="http://www.w3.org/2000/svg" xmlns:xlink="http://www.w3.org/1999/xlink">
	<g id="Group" stroke="none" stroke-width="1" fill="none" fill-rule="evenodd" transform="translate(250.000000, 106.000000)">
		<path d="M186.024553,65.6741178 C183.680534,64.8673056 181.251651,64.1039308 178.750774,63.3819828 C179.161823,61.7044085 179.539085,60.048553 179.87452,58.4208515 C185.380632,31.6934862 181.780544,10.1617345 169.487315,3.0725656 C157.699651,-3.7250086 138.421826,3.3625515 118.952151,20.3064132 C117.079912,21.9357235 115.202444,23.6607573 113.325782,25.4686441 C112.075343,24.2725027 110.826916,23.1165813 109.581707,22.0109348 C89.176918,3.8934548 68.7242671,-3.7414988 56.4431045,3.3681823 C44.6667022,10.1854643 41.1792302,30.4273621 46.135535,55.7570841 C46.6141524,58.2036638 47.1736119,60.7021273 47.8062718,63.2424195 C44.9116418,64.0641131 42.1171595,64.9401037 39.443337,65.872 C15.5209112,74.2124116 0.2429599,87.283896 0.2429599,100.842444 C0.2429599,114.845826 16.6438523,128.891438 41.5609175,137.408012 C43.527271,138.080088 45.5676292,138.715563 47.6703284,139.318862 C46.9877958,142.066288 46.3941493,144.758611 45.895824,147.384572 C41.1699796,172.27469 44.8605624,192.038372 56.6055931,198.812619 C68.7371375,205.808478 89.097282,198.617552 108.922903,181.287579 C110.489873,179.917687 112.062473,178.464943 113.637888,176.942216 C115.679856,178.908569 117.718604,180.769546 119.746495,182.515092 C138.949914,199.040264 157.916437,205.713157 169.650608,198.920007 C181.770086,191.904037 185.708827,170.673131 180.595261,144.842269 C180.204725,142.86948 179.75024,140.854058 179.239849,138.802841 C180.669668,138.380128 182.073345,137.943742 183.44203,137.490061 C209.345691,128.907526 226.199459,115.032848 226.199459,100.842444 C226.199459,87.234828 210.428813,74.0752616 186.024553,65.6741178 L186.024553,65.6741178 L186.024553,65.6741178 Z" id="Shape" fill="#2ecc71" fill-rule="nonzero"></path>
		<path d="M180.406228,128.327554 C179.170671,128.73659 177.902938,129.131953 176.611073,129.515249 C173.751435,120.46214 169.891928,110.835494 165.168899,100.889502 C169.675947,91.180405 173.386237,81.6768327 176.165838,72.6824446 C178.477279,73.3513024 180.720748,74.0567605 182.882571,74.8012318 C203.792119,81.9993967 216.546671,92.641998 216.546671,100.842444 C216.546671,109.577414 202.772142,120.916625 180.406228,128.327554 L180.406228,128.327554 L180.406228,128.327554 Z M171.125876,146.71692 C173.387041,158.138985 173.710007,168.46586 172.212216,176.538809 C170.866457,183.79288 168.160056,188.629329 164.813756,190.566322 C157.692813,194.688063 142.464736,189.330363 126.041722,175.197876 C124.159026,173.577816 122.262655,171.847956 120.360251,170.017143 C126.72707,163.053863 133.090269,154.958794 139.300632,145.968427 C150.223968,144.999127 160.544007,143.41446 169.902787,141.251029 C170.363708,143.110397 170.773147,144.93397 171.125876,146.71692 L171.125876,146.71692 L171.125876,146.71692 Z M77.2766379,189.854027 C70.3193904,192.311064 64.7782875,192.381449 61.4287698,190.450086 C54.301392,186.339205 51.3383881,170.470825 55.3800911,149.184817 C55.8430228,146.747085 56.3940362,144.242992 57.0291092,141.683394 C66.2853291,143.730187 76.5297533,145.203041 87.479233,146.090696 C93.731425,154.888007 100.278429,162.974228 106.87611,170.054548 C105.434627,171.446158 103.998774,172.771004 102.570966,174.019431 C93.804223,181.682539 85.018979,187.119472 77.2766379,189.854027 L77.2766379,189.854027 L77.2766379,189.854027 Z M44.6827903,128.274061 C33.6649364,124.508267 24.5659765,119.613901 18.3290683,114.273094 C12.7248202,109.473647 9.8953464,104.708789 9.8953464,100.842444 C9.8953464,92.614649 22.1620299,82.1200565 42.6207133,74.9870479 C45.1030888,74.1215145 47.7016999,73.3058539 50.3984478,72.5396638 C53.2259104,81.7371626 56.9349945,91.353351 61.4110731,101.077329 C56.8770778,110.945696 53.1153056,120.715124 50.2600911,130.020411 C48.3375774,129.467789 46.4749914,128.886209 44.6827903,128.274061 L44.6827903,128.274061 L44.6827903,128.274061 Z M55.6085405,53.9033464 C51.3621178,32.2014643 54.182341,15.8303347 61.2791516,11.7222687 C68.8384918,7.3459356 85.554306,13.585659 103.172255,29.2292097 C104.298413,30.2290778 105.428996,31.2756009 106.562797,32.3583221 C99.997694,39.4076732 93.510618,47.4331626 87.31393,56.1785891 C76.6870133,57.1635758 66.5145828,58.7458288 57.1618351,60.8646158 C56.5738193,58.4992804 56.0529709,56.1753716 55.6085405,53.9033464 L55.6085405,53.9033464 L55.6085405,53.9033464 Z M153.075965,77.970564 C150.840139,74.1086441 148.544785,70.3380235 146.204789,66.6703661 C153.414216,67.5817502 160.321589,68.7915664 166.808264,70.2720629 C164.860813,76.5133951 162.43354,83.0390825 159.576314,89.728867 C157.526706,85.8375868 155.35885,81.9141304 153.075965,77.970564 L153.075965,77.970564 L153.075965,77.970564 Z M113.328999,39.2568484 C117.781348,44.0804274 122.240132,49.465879 126.625716,55.3090337 C122.206347,55.1002922 117.732279,54.9916983 113.22121,54.9916983 C108.752773,54.9916983 104.311686,55.097879 99.919667,55.3030007 C104.309675,49.5141429 108.80707,44.1359308 113.328999,39.2568484 L113.328999,39.2568484 L113.328999,39.2568484 Z M73.3274407,78.0373291 C71.0940267,81.9101084 68.9663912,85.8122483 66.9489584,89.721628 C64.1379858,83.0551705 61.7332349,76.4997203 59.7688924,70.1699041 C66.2157486,68.7272144 73.0905452,67.5475633 80.254121,66.6534737 C77.8811438,70.3549159 75.5668876,74.1532883 73.3274407,78.0365247 L73.3274407,78.0373291 L73.3274407,78.0373291 Z M80.4604493,135.719981 C73.0591736,134.894265 66.0810118,133.775347 59.6357643,132.372474 C61.6314784,125.92964 64.0893197,119.234225 66.9598177,112.424182 C68.9824792,116.330746 71.1185609,120.234495 73.3656497,124.115721 L73.3660518,124.115721 C75.6549694,128.069744 78.0263378,131.942925 80.4604493,135.719981 L80.4604493,135.719981 L80.4604493,135.719981 Z M113.59606,163.108562 C109.02104,158.172367 104.457684,152.712107 100.000911,146.838787 C104.327371,147.008515 108.738293,147.095391 113.22121,147.095391 C117.826797,147.095391 122.379695,146.991623 126.861003,146.792132 C122.460939,152.771231 118.018244,158.239937 113.59606,163.108562 L113.59606,163.108562 L113.59606,163.108562 Z M159.668418,112.077084 C162.688534,118.960729 165.234457,125.621153 167.255912,131.954187 C160.704484,133.44876 153.631001,134.652544 146.178244,135.547036 C148.523872,131.829907 150.839334,127.994532 153.114576,124.049357 C155.416365,120.05793 157.601917,116.060469 159.668418,112.077084 L159.668418,112.077084 L159.668418,112.077084 Z M144.75325,119.226985 C141.221134,125.351277 137.594903,131.197649 133.913571,136.71623 C127.208502,137.195651 120.28142,137.442602 113.22121,137.442602 C106.189556,137.442602 99.34975,137.224207 92.763331,136.796669 C88.933587,131.205694 85.228525,125.342027 81.7189317,119.279673 L81.7197361,119.279673 C78.2193935,113.23381 74.9977754,107.136867 72.0786112,101.074112 C74.9969709,94.997279 78.2101429,88.893499 81.6903755,82.8584949 L81.6895711,82.8597015 C85.179054,76.8086096 88.851538,70.9734988 92.645888,65.4175145 C99.365838,64.9095366 106.256723,64.6444871 113.220808,64.6444871 L113.22121,64.6444871 C120.216666,64.6444871 127.116399,64.9115475 133.834337,65.4239498 C137.570771,70.9393119 141.218319,76.7555192 144.721477,82.8074156 C148.264453,88.927284 151.519051,94.990441 154.462347,100.936962 C151.5279,106.98564 148.280541,113.109933 144.75325,119.226985 L144.75325,119.226985 L144.75325,119.226985 Z M164.665747,11.4350982 C172.232327,15.7985609 175.174818,33.3963991 170.42082,56.472597 C170.117561,57.9450495 169.776095,59.4448515 169.405266,60.9647635 C160.030799,58.8017345 149.851129,57.192132 139.193245,56.1922639 C132.98449,47.3507117 126.550504,39.3127541 120.092386,32.3538978 C121.828682,30.6835633 123.562564,29.0908531 125.289206,27.5878335 C141.970834,13.0704415 157.562099,7.338696 164.665747,11.4350982 L164.665747,11.4350982 L164.665747,11.4350982 Z" id="Shape" fill="#FFFFFF" fill-rule="nonzero"></path>
		<path d="M113.22121,80.6653008 C124.36455,80.6653008 133.398353,89.698702 133.398353,100.842444 C133.398353,111.985784 124.36455,121.019589 113.22121,121.019589 C102.07787,121.019589 93.044066,111.985784 93.044066,100.842444 C93.044066,89.698702 102.07787,80.6653008 113.22121,80.6653008" id="Shape" fill="#2ecc71" fill-rule="nonzero"></path>
	</g>
	<text id="React-Boilerplate" stroke="none" fill="none" font-family="Futura-Medium, Futura" font-size="36" font-weight="400">
		<tspan x="224" y="359" fill="#2F3F42">React Boilerplate</tspan>
	</text>
</svg>
